<?xml version="1.0" encoding="UTF-8"?><svg id="Layer_1" xmlns="http://www.w3.org/2000/svg" viewBox="0 0 353.87 281.87"><defs><style>.cls-1{fill:#88c8f9;}</style></defs><path class="cls-1" d="M254.91,227.57H98.96c-7.07,0-12.82-5.75-12.82-12.82v-112.16c0-7.07,5.75-12.82,12.82-12.82h155.95c7.07,0,12.82,5.75,12.82,12.82v112.16c0,7.07-5.75,12.82-12.82,12.82ZM98.96,100.46c-1.16,0-2.14.98-2.14,2.14v112.16c0,1.16.98,2.14,2.14,2.14h155.95c1.16,0,2.14-.98,2.14-2.14v-112.16c0-1.16-.98-2.14-2.14-2.14H98.96Z"/><polygon class="cls-1" points="176.93 184.25 87.79 98.98 95.18 91.26 176.95 169.49 256.69 93.65 264.05 101.39 176.93 184.25"/></svg>