<?xml version="1.0" encoding="UTF-8"?><svg id="Layer_1" xmlns="http://www.w3.org/2000/svg" viewBox="0 0 353.87 281.87"><defs><style>.cls-1{fill:#88c8f9;}</style></defs><path class="cls-1" d="M235.87,209.35c-1.21,0-2.32-.08-3.53-.17l-122.08-.37-.33-.05c-27.88-3.82-48.91-27.92-48.91-56.06,0-30.06,23.53-54.72,53.14-56.53,7.43-29.14,33.84-49.89,64.29-49.89,36.59,0,66.37,29.77,66.37,66.37,0,.3,0,.6,0,.91,9.86,1.94,18.88,7.08,25.76,14.77,8,8.93,12.41,20.54,12.41,32.68,0,26.66-21.13,48.34-47.1,48.34ZM110.97,198.81l121.8.36.19.02c1.1.09,2.01.16,2.92.16,20.46,0,37.1-17.2,37.1-38.34,0-19.7-14.87-36.46-33.84-38.17l-4.95-.45.42-4.95c.15-1.75.22-3.31.22-4.78,0-31.08-25.29-56.37-56.37-56.37-27.02,0-50.3,19.24-55.35,45.75l-.78,4.11-4.18-.05c-.19,0-.37-.01-.56-.03-25.68.05-46.55,20.95-46.55,46.64,0,23.06,17.15,42.82,39.95,46.1Z"/></svg>