<?xml version="1.0" encoding="UTF-8"?><svg id="Layer_1" xmlns="http://www.w3.org/2000/svg" viewBox="0 0 455 354"><defs><style>.cls-1{stroke:#000;stroke-width:5px;}.cls-1,.cls-2,.cls-3{stroke-miterlimit:10;}.cls-2{stroke-width:9px;}.cls-2,.cls-3{fill:none;stroke:#88c8f9;}.cls-3{stroke-width:12px;}.cls-3,.cls-4{fill-rule:evenodd;}.cls-4{fill:#88c8f9;}</style></defs><polygon class="cls-3" points="119 32 119 173 221 173 221 289 369 289 369 173 369 35 369 32 119 32"/><polygon class="cls-4" points="107 39 108 183 210 183 210 298 359 300 325 328 172 328 172 219 75 218 75 71 107 39"/><path d="M153.51,55.33h4.02v4.02h-4.02v-4.02ZM153.51,59.35h4.02v4.02h-4.02v-4.02ZM153.51,63.36h4.02v4.02h-4.02v-4.02ZM153.51,67.38h4.02v4.02h-4.02v-4.02ZM153.51,71.39h4.02v4.02h-4.02v-4.02ZM153.51,75.41h4.02v4.02h-4.02v-4.02ZM153.51,79.43h4.02v4.02h-4.02v-4.02ZM157.52,55.33h4.02v4.02h-4.02v-4.02ZM157.52,59.35h4.02v4.02h-4.02v-4.02ZM157.52,63.36h4.02v4.02h-4.02v-4.02ZM157.52,67.38h4.02v4.02h-4.02v-4.02ZM157.52,71.39h4.02v4.02h-4.02v-4.02ZM157.52,75.41h4.02v4.02h-4.02v-4.02ZM157.52,79.43h4.02v4.02h-4.02v-4.02ZM157.52,83.44h4.02v4.02h-4.02v-4.02ZM161.54,79.43h4.02v4.02h-4.02v-4.02ZM161.54,83.44h4.02v4.02h-4.02v-4.02ZM161.54,87.46h4.02v4.02h-4.02v-4.02ZM165.55,83.44h4.02v4.02h-4.02v-4.02ZM165.55,87.46h4.02v4.02h-4.02v-4.02ZM165.55,91.47h4.02v4.02h-4.02v-4.02ZM169.57,79.43h4.02v4.02h-4.02v-4.02ZM169.57,83.44h4.02v4.02h-4.02v-4.02ZM169.57,87.46h4.02v4.02h-4.02v-4.02ZM173.59,55.33h4.02v4.02h-4.02v-4.02ZM173.59,59.35h4.02v4.02h-4.02v-4.02ZM173.59,63.36h4.02v4.02h-4.02v-4.02ZM173.59,67.38h4.02v4.02h-4.02v-4.02ZM173.59,71.39h4.02v4.02h-4.02v-4.02ZM173.59,75.41h4.02v4.02h-4.02v-4.02ZM173.59,79.43h4.02v4.02h-4.02v-4.02ZM173.59,83.44h4.02v4.02h-4.02v-4.02ZM177.6,55.33h4.02v4.02h-4.02v-4.02ZM177.6,59.35h4.02v4.02h-4.02v-4.02ZM177.6,63.36h4.02v4.02h-4.02v-4.02ZM177.6,67.38h4.02v4.02h-4.02v-4.02ZM177.6,71.39h4.02v4.02h-4.02v-4.02ZM177.6,75.41h4.02v4.02h-4.02v-4.02ZM177.6,79.43h4.02v4.02h-4.02v-4.02Z"/><path d="M185.63,55.33h8.03v8.03h-8.03v-8.03ZM185.63,67.38h8.03v28.11h-8.03v-28.11Z"/><path d="M201.7,67.38v4.02h-4.02v-4.02h4.02ZM201.7,71.39v4.02h-4.02v-4.02h4.02ZM201.7,75.41v4.02h-4.02v-4.02h4.02ZM201.7,79.43v4.02h-4.02v-4.02h4.02ZM201.7,83.44v4.02h-4.02v-4.02h4.02ZM201.7,87.46v4.02h-4.02v-4.02h4.02ZM205.71,63.36v4.02h-4.02v-4.02h4.02ZM205.71,67.38v4.02h-4.02v-4.02h4.02ZM205.71,71.39v4.02h-4.02v-4.02h4.02ZM205.71,75.41v4.02h-4.02v-4.02h4.02ZM205.71,79.43v4.02h-4.02v-4.02h4.02ZM205.71,83.44v4.02h-4.02v-4.02h4.02ZM205.71,87.46v4.02h-4.02v-4.02h4.02ZM205.71,91.47v4.02h-4.02v-4.02h4.02ZM209.73,63.36v4.02h-4.02v-4.02h4.02ZM209.73,67.38v4.02h-4.02v-4.02h4.02ZM209.73,87.46v4.02h-4.02v-4.02h4.02ZM209.73,91.47v4.02h-4.02v-4.02h4.02ZM213.75,63.36v4.02h-4.02v-4.02h4.02ZM213.75,67.38v4.02h-4.02v-4.02h4.02ZM213.75,87.46v4.02h-4.02v-4.02h4.02ZM213.75,91.47v4.02h-4.02v-4.02h4.02ZM217.76,63.36v4.02h-4.02v-4.02h4.02ZM217.76,67.38v4.02h-4.02v-4.02h4.02ZM217.76,87.46v4.02h-4.02v-4.02h4.02ZM221.78,55.33v4.02h-4.02v-4.02h4.02ZM221.78,59.35v4.02h-4.02v-4.02h4.02ZM221.78,63.36v4.02h-4.02v-4.02h4.02ZM221.78,67.38v4.02h-4.02v-4.02h4.02ZM221.78,71.39v4.02h-4.02v-4.02h4.02ZM221.78,75.41v4.02h-4.02v-4.02h4.02ZM221.78,79.43v4.02h-4.02v-4.02h4.02ZM221.78,83.44v4.02h-4.02v-4.02h4.02ZM221.78,87.46v4.02h-4.02v-4.02h4.02ZM221.78,91.47v4.02h-4.02v-4.02h4.02ZM225.79,55.33v4.02h-4.02v-4.02h4.02ZM225.79,59.35v4.02h-4.02v-4.02h4.02ZM225.79,63.36v4.02h-4.02v-4.02h4.02ZM225.79,67.38v4.02h-4.02v-4.02h4.02ZM225.79,71.39v4.02h-4.02v-4.02h4.02ZM225.79,75.41v4.02h-4.02v-4.02h4.02ZM225.79,79.43v4.02h-4.02v-4.02h4.02ZM225.79,83.44v4.02h-4.02v-4.02h4.02ZM225.79,87.46v4.02h-4.02v-4.02h4.02ZM225.79,91.47v4.02h-4.02v-4.02h4.02Z"/><path d="M229.81,67.38h4.02v4.02h-4.02v-4.02ZM229.81,71.39h4.02v4.02h-4.02v-4.02ZM229.81,75.41h4.02v4.02h-4.02v-4.02ZM229.81,87.46h4.02v4.02h-4.02v-4.02ZM233.82,63.36h4.02v4.02h-4.02v-4.02ZM233.82,67.38h4.02v4.02h-4.02v-4.02ZM233.82,71.39h4.02v4.02h-4.02v-4.02ZM233.82,75.41h4.02v4.02h-4.02v-4.02ZM233.82,79.43h4.02v4.02h-4.02v-4.02ZM233.82,87.46h4.02v4.02h-4.02v-4.02ZM233.82,91.47h4.02v4.02h-4.02v-4.02ZM237.84,63.36h4.02v4.02h-4.02v-4.02ZM237.84,67.38h4.02v4.02h-4.02v-4.02ZM237.84,75.41h4.02v4.02h-4.02v-4.02ZM237.84,79.43h4.02v4.02h-4.02v-4.02ZM237.84,87.46h4.02v4.02h-4.02v-4.02ZM237.84,91.47h4.02v4.02h-4.02v-4.02ZM241.86,63.36h4.02v4.02h-4.02v-4.02ZM241.86,67.38h4.02v4.02h-4.02v-4.02ZM241.86,75.41h4.02v4.02h-4.02v-4.02ZM241.86,79.43h4.02v4.02h-4.02v-4.02ZM241.86,87.46h4.02v4.02h-4.02v-4.02ZM241.86,91.47h4.02v4.02h-4.02v-4.02ZM245.87,63.36h4.02v4.02h-4.02v-4.02ZM245.87,67.38h4.02v4.02h-4.02v-4.02ZM245.87,75.41h4.02v4.02h-4.02v-4.02ZM245.87,79.43h4.02v4.02h-4.02v-4.02ZM245.87,83.44h4.02v4.02h-4.02v-4.02ZM245.87,87.46h4.02v4.02h-4.02v-4.02ZM245.87,91.47h4.02v4.02h-4.02v-4.02ZM249.89,67.38h4.02v4.02h-4.02v-4.02ZM249.89,79.43h4.02v4.02h-4.02v-4.02ZM249.89,83.44h4.02v4.02h-4.02v-4.02ZM249.89,87.46h4.02v4.02h-4.02v-4.02Z"/><path d="M257.92,67.38h4.02v4.02h-4.02v-4.02ZM257.92,71.39h4.02v4.02h-4.02v-4.02ZM261.94,59.35h4.02v4.02h-4.02v-4.02ZM261.94,63.36h4.02v4.02h-4.02v-4.02ZM261.94,67.38h4.02v4.02h-4.02v-4.02ZM261.94,71.39h4.02v4.02h-4.02v-4.02ZM261.94,75.41h4.02v4.02h-4.02v-4.02ZM261.94,79.43h4.02v4.02h-4.02v-4.02ZM261.94,83.44h4.02v4.02h-4.02v-4.02ZM261.94,87.46h4.02v4.02h-4.02v-4.02ZM265.95,55.33h4.02v4.02h-4.02v-4.02ZM265.95,59.35h4.02v4.02h-4.02v-4.02ZM265.95,63.36h4.02v4.02h-4.02v-4.02ZM265.95,67.38h4.02v4.02h-4.02v-4.02ZM265.95,71.39h4.02v4.02h-4.02v-4.02ZM265.95,75.41h4.02v4.02h-4.02v-4.02ZM265.95,79.43h4.02v4.02h-4.02v-4.02ZM265.95,83.44h4.02v4.02h-4.02v-4.02ZM265.95,87.46h4.02v4.02h-4.02v-4.02ZM265.95,91.47h4.02v4.02h-4.02v-4.02ZM269.97,67.38h4.02v4.02h-4.02v-4.02ZM269.97,71.39h4.02v4.02h-4.02v-4.02ZM269.97,87.46h4.02v4.02h-4.02v-4.02ZM269.97,91.47h4.02v4.02h-4.02v-4.02ZM273.98,67.38h4.02v4.02h-4.02v-4.02ZM273.98,71.39h4.02v4.02h-4.02v-4.02ZM273.98,87.46h4.02v4.02h-4.02v-4.02ZM273.98,91.47h4.02v4.02h-4.02v-4.02Z"/><path d="M282.02,67.38h4.02v4.02h-4.02v-4.02ZM282.02,71.39h4.02v4.02h-4.02v-4.02ZM282.02,75.41h4.02v4.02h-4.02v-4.02ZM282.02,79.43h4.02v4.02h-4.02v-4.02ZM282.02,83.44h4.02v4.02h-4.02v-4.02ZM282.02,87.46h4.02v4.02h-4.02v-4.02ZM286.03,63.36h4.02v4.02h-4.02v-4.02ZM286.03,67.38h4.02v4.02h-4.02v-4.02ZM286.03,71.39h4.02v4.02h-4.02v-4.02ZM286.03,75.41h4.02v4.02h-4.02v-4.02ZM286.03,79.43h4.02v4.02h-4.02v-4.02ZM286.03,83.44h4.02v4.02h-4.02v-4.02ZM286.03,87.46h4.02v4.02h-4.02v-4.02ZM286.03,91.47h4.02v4.02h-4.02v-4.02ZM290.05,63.36h4.02v4.02h-4.02v-4.02ZM290.05,67.38h4.02v4.02h-4.02v-4.02ZM290.05,75.41h4.02v4.02h-4.02v-4.02ZM290.05,79.43h4.02v4.02h-4.02v-4.02ZM290.05,87.46h4.02v4.02h-4.02v-4.02ZM290.05,91.47h4.02v4.02h-4.02v-4.02ZM294.06,63.36h4.02v4.02h-4.02v-4.02ZM294.06,67.38h4.02v4.02h-4.02v-4.02ZM294.06,75.41h4.02v4.02h-4.02v-4.02ZM294.06,79.43h4.02v4.02h-4.02v-4.02ZM294.06,87.46h4.02v4.02h-4.02v-4.02ZM294.06,91.47h4.02v4.02h-4.02v-4.02ZM298.08,63.36h4.02v4.02h-4.02v-4.02ZM298.08,67.38h4.02v4.02h-4.02v-4.02ZM298.08,75.41h4.02v4.02h-4.02v-4.02ZM298.08,79.43h4.02v4.02h-4.02v-4.02ZM298.08,87.46h4.02v4.02h-4.02v-4.02ZM298.08,91.47h4.02v4.02h-4.02v-4.02ZM302.1,63.36h4.02v4.02h-4.02v-4.02ZM302.1,67.38h4.02v4.02h-4.02v-4.02ZM302.1,71.39h4.02v4.02h-4.02v-4.02ZM302.1,75.41h4.02v4.02h-4.02v-4.02ZM302.1,79.43h4.02v4.02h-4.02v-4.02ZM302.1,87.46h4.02v4.02h-4.02v-4.02ZM302.1,91.47h4.02v4.02h-4.02v-4.02ZM306.11,67.38h4.02v4.02h-4.02v-4.02ZM306.11,71.39h4.02v4.02h-4.02v-4.02ZM306.11,75.41h4.02v4.02h-4.02v-4.02ZM306.11,79.43h4.02v4.02h-4.02v-4.02ZM306.11,87.46h4.02v4.02h-4.02v-4.02Z"/><path d="M157.52,117.81v4.02h-4.02v-4.02h4.02ZM157.52,121.82v4.02h-4.02v-4.02h4.02ZM157.52,125.84v4.02h-4.02v-4.02h4.02ZM157.52,129.86v4.02h-4.02v-4.02h4.02ZM157.52,133.87v4.02h-4.02v-4.02h4.02ZM157.52,137.89v4.02h-4.02v-4.02h4.02ZM161.54,113.79v4.02h-4.02v-4.02h4.02ZM161.54,117.81v4.02h-4.02v-4.02h4.02ZM161.54,121.82v4.02h-4.02v-4.02h4.02ZM161.54,125.84v4.02h-4.02v-4.02h4.02ZM161.54,129.86v4.02h-4.02v-4.02h4.02ZM161.54,133.87v4.02h-4.02v-4.02h4.02ZM161.54,137.89v4.02h-4.02v-4.02h4.02ZM161.54,141.9v4.02h-4.02v-4.02h4.02ZM165.55,113.79v4.02h-4.02v-4.02h4.02ZM165.55,117.81v4.02h-4.02v-4.02h4.02ZM165.55,137.89v4.02h-4.02v-4.02h4.02ZM165.55,141.9v4.02h-4.02v-4.02h4.02ZM169.57,113.79v4.02h-4.02v-4.02h4.02ZM169.57,117.81v4.02h-4.02v-4.02h4.02ZM169.57,137.89v4.02h-4.02v-4.02h4.02ZM169.57,141.9v4.02h-4.02v-4.02h4.02ZM173.59,113.79v4.02h-4.02v-4.02h4.02ZM173.59,117.81v4.02h-4.02v-4.02h4.02ZM173.59,137.89v4.02h-4.02v-4.02h4.02ZM177.6,105.76v4.02h-4.02v-4.02h4.02ZM177.6,109.78v4.02h-4.02v-4.02h4.02ZM177.6,113.79v4.02h-4.02v-4.02h4.02ZM177.6,117.81v4.02h-4.02v-4.02h4.02ZM177.6,121.82v4.02h-4.02v-4.02h4.02ZM177.6,125.84v4.02h-4.02v-4.02h4.02ZM177.6,129.86v4.02h-4.02v-4.02h4.02ZM177.6,133.87v4.02h-4.02v-4.02h4.02ZM177.6,137.89v4.02h-4.02v-4.02h4.02ZM177.6,141.9v4.02h-4.02v-4.02h4.02ZM181.62,105.76v4.02h-4.02v-4.02h4.02ZM181.62,109.78v4.02h-4.02v-4.02h4.02ZM181.62,113.79v4.02h-4.02v-4.02h4.02ZM181.62,117.81v4.02h-4.02v-4.02h4.02ZM181.62,121.82v4.02h-4.02v-4.02h4.02ZM181.62,125.84v4.02h-4.02v-4.02h4.02ZM181.62,129.86v4.02h-4.02v-4.02h4.02ZM181.62,133.87v4.02h-4.02v-4.02h4.02ZM181.62,137.89v4.02h-4.02v-4.02h4.02ZM181.62,141.9v4.02h-4.02v-4.02h4.02Z"/><path d="M189.65,117.81h-4.02v-4.02h4.02v4.02ZM189.65,121.82h-4.02v-4.02h4.02v4.02ZM189.65,125.84h-4.02v-4.02h4.02v4.02ZM189.65,129.86h-4.02v-4.02h4.02v4.02ZM189.65,133.87h-4.02v-4.02h4.02v4.02ZM189.65,137.89h-4.02v-4.02h4.02v4.02ZM189.65,141.9h-4.02v-4.02h4.02v4.02ZM193.67,117.81h-4.02v-4.02h4.02v4.02ZM193.67,121.82h-4.02v-4.02h4.02v4.02ZM193.67,125.84h-4.02v-4.02h4.02v4.02ZM193.67,129.86h-4.02v-4.02h4.02v4.02ZM193.67,133.87h-4.02v-4.02h4.02v4.02ZM193.67,137.89h-4.02v-4.02h4.02v4.02ZM193.67,141.9h-4.02v-4.02h4.02v4.02ZM193.67,145.92h-4.02v-4.02h4.02v4.02ZM197.68,141.9h-4.02v-4.02h4.02v4.02ZM197.68,145.92h-4.02v-4.02h4.02v4.02ZM201.7,141.9h-4.02v-4.02h4.02v4.02ZM201.7,145.92h-4.02v-4.02h4.02v4.02ZM205.71,141.9h-4.02v-4.02h4.02v4.02ZM209.73,117.81h-4.02v-4.02h4.02v4.02ZM209.73,121.82h-4.02v-4.02h4.02v4.02ZM209.73,125.84h-4.02v-4.02h4.02v4.02ZM209.73,129.86h-4.02v-4.02h4.02v4.02ZM209.73,133.87h-4.02v-4.02h4.02v4.02ZM209.73,137.89h-4.02v-4.02h4.02v4.02ZM209.73,141.9h-4.02v-4.02h4.02v4.02ZM209.73,145.92h-4.02v-4.02h4.02v4.02ZM213.75,117.81h-4.02v-4.02h4.02v4.02ZM213.75,121.82h-4.02v-4.02h4.02v4.02ZM213.75,125.84h-4.02v-4.02h4.02v4.02ZM213.75,129.86h-4.02v-4.02h4.02v4.02ZM213.75,133.87h-4.02v-4.02h4.02v4.02ZM213.75,137.89h-4.02v-4.02h4.02v4.02ZM213.75,141.9h-4.02v-4.02h4.02v4.02ZM213.75,145.92h-4.02v-4.02h4.02v4.02Z"/><path d="M217.76,109.78h4.02v4.02h-4.02v-4.02ZM217.76,113.79h4.02v4.02h-4.02v-4.02ZM221.78,105.76h4.02v4.02h-4.02v-4.02ZM221.78,109.78h4.02v4.02h-4.02v-4.02ZM221.78,113.79h4.02v4.02h-4.02v-4.02ZM225.79,105.76h4.02v4.02h-4.02v-4.02ZM225.79,109.78h4.02v4.02h-4.02v-4.02ZM225.79,121.82h4.02v4.02h-4.02v-4.02ZM225.79,125.84h4.02v4.02h-4.02v-4.02ZM225.79,129.86h4.02v4.02h-4.02v-4.02ZM225.79,137.89h4.02v4.02h-4.02v-4.02ZM225.79,141.9h4.02v4.02h-4.02v-4.02ZM229.81,105.76h4.02v4.02h-4.02v-4.02ZM229.81,109.78h4.02v4.02h-4.02v-4.02ZM229.81,117.81h4.02v4.02h-4.02v-4.02ZM229.81,121.82h4.02v4.02h-4.02v-4.02ZM229.81,125.84h4.02v4.02h-4.02v-4.02ZM229.81,129.86h4.02v4.02h-4.02v-4.02ZM229.81,137.89h4.02v4.02h-4.02v-4.02ZM229.81,141.9h4.02v4.02h-4.02v-4.02ZM233.82,105.76h4.02v4.02h-4.02v-4.02ZM233.82,109.78h4.02v4.02h-4.02v-4.02ZM233.82,113.79h4.02v4.02h-4.02v-4.02ZM233.82,117.81h4.02v4.02h-4.02v-4.02ZM233.82,121.82h4.02v4.02h-4.02v-4.02ZM237.84,109.78h4.02v4.02h-4.02v-4.02ZM237.84,113.79h4.02v4.02h-4.02v-4.02ZM237.84,117.81h4.02v4.02h-4.02v-4.02Z"/><path d="M342.11,250.84v6h-35.97v6h-6v-6h-6v-6h6v-6h6v6h35.97ZM312.14,238.85h-6v6h6v-6ZM312.14,238.85h6v-6h-6v6ZM312.14,268.83h-6v-6h6v6ZM312.14,268.83h6v6h-6v-6Z"/><line class="cls-1" x1="342.11" y1="250.84" x2="342.11" y2="217.86"/><line class="cls-2" x1="84.04" y1="209" x2="110.17" y2="183"/><line class="cls-2" x1="172" y1="219" x2="207" y2="186"/><line class="cls-2" x1="176" y1="324.84" x2="210" y2="298"/></svg>