<?xml version="1.0" encoding="UTF-8"?><svg id="Layer_1" xmlns="http://www.w3.org/2000/svg" viewBox="0 0 353.87 281.87"><defs><style>.cls-1{fill:#1dbf62;}</style></defs><path class="cls-1" d="M115.92,127.82h-57.5c-6.29,0-11.38,5.09-11.38,11.36v82.04c0,6.27,5.1,11.36,11.38,11.36h57.5c6.29,0,11.38-5.09,11.38-11.36v-82.04c0-6.27-5.1-11.36-11.38-11.36ZM92.54,224.5h-10.74v-7.59h10.74v7.59ZM118.94,201.28c0,4.44-3.61,8.04-8.05,8.04h-47.43c-4.45,0-8.05-3.6-8.05-8.04v-57.16c0-4.44,3.61-8.04,8.05-8.04h47.43c4.45,0,8.05,3.6,8.05,8.04v57.16Z"/><path class="cls-1" d="M289.83,69.51h-124.45c-9.39,0-17,7.6-17,16.97v129.13c0,9.37,7.61,16.97,17,16.97h124.45c9.39,0,17-7.6,17-16.97V86.48c0-9.37-7.61-16.97-17-16.97ZM288.23,205.52c0,6.29-5.11,11.39-11.41,11.39h-98.44c-6.3,0-11.41-5.1-11.41-11.39v-109.45c0-6.29,5.11-11.39,11.41-11.39h98.44c6.3,0,11.41,5.1,11.41,11.39v109.45Z"/><rect class="cls-1" x="205.68" y="191.87" width="43.85" height="13.4" rx="5.11" ry="5.11"/></svg>