<?xml version="1.0" encoding="UTF-8"?><svg id="Layer_1" xmlns="http://www.w3.org/2000/svg" viewBox="0 0 353.87 281.87"><defs><style>.cls-1{fill:#88c8f9;}</style></defs><path class="cls-1" d="M252.62,212.77H94.17c-6.42,0-11.63-5.22-11.63-11.63v-113.88c0-6.41,5.22-11.63,11.63-11.63h158.45c6.41,0,11.63,5.22,11.63,11.63v113.88c0,6.42-5.22,11.63-11.63,11.63ZM94.17,85.62c-.9,0-1.63.73-1.63,1.63v113.88c0,.9.73,1.63,1.63,1.63h158.45c.9,0,1.63-.73,1.63-1.63v-113.88c0-.9-.73-1.63-1.63-1.63H94.17Z"/><rect class="cls-1" x="173.39" y="209.23" width="1.71" height="25.04"/><rect class="cls-1" x="168.39" y="204.23" width="11.71" height="35.04"/><rect class="cls-1" x="126.73" y="234.27" width="95.19" height="7.47" rx="1.15" ry="1.15"/></svg>