<?xml version="1.0" encoding="UTF-8"?><svg id="Layer_4" xmlns="http://www.w3.org/2000/svg" viewBox="0 0 872.17 679.62"><defs><style>.cls-1{fill:#0d2230;}.cls-2{fill:#30a8f9;}.cls-3{fill:#95d8e9;}.cls-4{fill:#344866;}.cls-5{fill:#1dbf62;}.cls-6{stroke:#355bd8;stroke-width:5px;}.cls-6,.cls-7,.cls-8{fill:none;stroke-miterlimit:10;}.cls-9{fill:#fff;}.cls-10{fill:#000307;}.cls-11{fill:#2358b7;}.cls-7{stroke:#2cc684;}.cls-12{fill:#29b7b0;}.cls-13{fill:#6d6e71;}.cls-14{fill:#19dd89;}.cls-15{fill:#0891a3;}.cls-16{fill:#d1edfb;}.cls-17{fill:#cceaf2;}.cls-18{fill:#3475b9;}.cls-8{stroke:#1dbf62;}.cls-19{fill:#1cf7b3;}.cls-20{fill:#8abbdd;}.cls-21{fill:#135e87;}.cls-22{fill:#27a8e2;}</style></defs><path class="cls-2" d="M125.19,505.35c1.91-1.75,3.99-3.25,6.15-4.48l-.07-10.63c1.73-.75,3.38-1.38,5.11-1.92l6.77,8.17c5.08-.82,10.24-.56,15.2.75l7.45-7.63c1.71.72,3.31,1.46,5.01,2.35l-1.09,10.54c2.05,1.47,3.97,3.12,5.77,5.06,1.75,1.91,3.23,3.99,4.51,6.15l10.63-.11c.7,1.72,1.34,3.42,1.83,5.17l-8.15,6.82c.83,5.01.63,10.17-.68,15.1l7.54,7.46c-.64,1.74-1.41,3.32-2.32,4.96l-10.57-.98c-1.43,2.04-3.15,3.92-5.06,5.68-1.93,1.77-3.98,3.32-6.14,4.56l.05,10.62c-1.67.72-3.32,1.34-5.14,1.87l-3.57-4.35v-2.7c0-.05.05-6.59.36-8.67.38-2.51,2.32-5.02,4.32-7.32.94-.64,1.82-1.34,2.68-2.13,10.01-9.16,10.66-24.68,1.52-34.65-9.13-9.98-24.7-10.74-34.7-1.58-9.98,9.14-10.6,24.72-1.46,34.7,1.71,1.86,3.65,3.41,5.72,4.64.01,0,.03.03.05.04,1.39,1.79,2.72,3.5,3.09,4.41.68,1.57.89,6.23.92,8.98-.27-.07-.54-.11-.81-.18l-7.48,7.5c-1.67-.67-3.33-1.45-4.97-2.31l1.04-10.57c-2.08-1.43-3.96-3.14-5.71-5.04-1.79-1.96-3.31-3.97-4.56-6.18l-10.58.15c-.76-1.75-1.33-3.43-1.9-5.2l8.2-6.7c-.83-5.09-.63-10.26.63-15.24l-7.58-7.42c.73-1.72,1.49-3.3,2.35-4.92l10.58,1c1.42-2.05,3.11-3.99,5.04-5.76Z"/><path class="cls-2" d="M172.31,548.43c.26-.23.44-.49.66-.75,1.6,1.73,3.18,3.48,4.78,5.2-.07.09-.11.18-.18.27l4.12,9.77c-1.24,1.35-2.57,2.53-4.04,3.72l-9.4-4.96c-.5.31-1.04.58-1.57.86-.58-2.01-1.5-4.05-2.64-6.07,2.74-2.69,5.46-5.4,8.27-8.02Z"/><path class="cls-2" d="M120.63,496.68l9.41,4.9c4.37-2.73,9.22-4.49,14.31-5.19l3.9-9.91c1.86-.02,3.62.03,5.52.23l3.09,10.11c2.45.59,4.87,1.36,7.28,2.47,2.34,1.09,4.51,2.41,6.53,3.91l9.76-4.21c1.31,1.31,2.55,2.64,3.69,4.06l-4.88,9.43c2.71,4.3,4.52,9.14,5.24,14.21l9.82,3.97c.08,1.83-.02,3.61-.21,5.47l-10.12,3.16c-.53,2.45-1.39,4.86-2.48,7.22-1.08,2.33-2.34,4.52-3.82,6.48l-7.67-8.37c.55-.87,1.06-1.76,1.5-2.72,5.68-12.32.28-26.9-12.01-32.55-12.28-5.67-26.93-.33-32.6,11.97-3.62,7.86-2.67,16.64,1.69,23.43.01,2.06.72,4.18,2.52,6.14l4.38,4.79-6,5.48c-.58-.38-1.18-.74-1.73-1.17l-9.7,4.23c-1.38-1.32-2.56-2.63-3.76-4.04l4.98-9.35c-2.74-4.39-4.56-9.23-5.33-14.32l-9.85-3.91c0-1.86.08-3.64.27-5.45l10.12-3.15c.52-2.45,1.33-4.9,2.42-7.27,1.09-2.36,2.44-4.55,3.95-6.54l-4.19-9.76c1.3-1.37,2.6-2.58,3.96-3.73Z"/><path class="cls-2" d="M120.63,496.68l9.41,4.9c4.37-2.73,9.22-4.49,14.31-5.19l3.9-9.91c1.86-.02,3.62.03,5.52.23l3.09,10.11c2.45.59,4.87,1.36,7.28,2.47,2.34,1.09,4.51,2.41,6.53,3.91l9.76-4.21c1.31,1.31,2.55,2.64,3.69,4.06l-4.88,9.43c2.71,4.3,4.52,9.14,5.24,14.21l9.82,3.97c.08,1.83-.02,3.61-.21,5.47l-10.12,3.16c-.53,2.45-1.39,4.86-2.48,7.22-1.08,2.33-2.34,4.52-3.82,6.48l-7.67-8.37c.55-.87,1.06-1.76,1.5-2.72,5.68-12.32.28-26.9-12.01-32.55-12.28-5.67-26.93-.33-32.6,11.97-3.62,7.86-2.67,16.64,1.69,23.43.01,2.06.72,4.18,2.52,6.14l4.38,4.79-6,5.48c-.58-.38-1.18-.74-1.73-1.17l-9.7,4.23c-1.38-1.32-2.56-2.63-3.76-4.04l4.98-9.35c-2.74-4.39-4.56-9.23-5.33-14.32l-9.85-3.91c0-1.86.08-3.64.27-5.45l10.12-3.15c.52-2.45,1.33-4.9,2.42-7.27,1.09-2.36,2.44-4.55,3.95-6.54l-4.19-9.76c1.3-1.37,2.6-2.58,3.96-3.73Z"/><polygon class="cls-2" points="143.35 537.09 151.04 539.44 156.94 533.95 155.12 526.12 147.43 523.76 141.54 529.26 143.35 537.09"/><path class="cls-2" d="M199.37,522.98l-5.79-.55c-.46.88-.88,1.76-1.27,2.7l4.14,4.07c-.7,2.71-.81,5.53-.34,8.34l-4.5,3.66c.31.96.63,1.88,1.04,2.84l5.78-.08c.7,1.19,1.54,2.3,2.51,3.37.95,1.04,1.99,1.97,3.11,2.77l-.56,5.78c.89.47,1.8.89,2.71,1.26l4.1-4.11c2.71.68,5.53.81,8.3.34l3.68,4.49c.99-.29,1.91-.63,2.81-1.02l-.03-5.81c1.18-.67,2.31-1.53,3.36-2.48,1.04-.96,1.99-2,2.77-3.13l5.79.54c.48-.88.91-1.77,1.25-2.7l-4.11-4.08c.71-2.71.82-5.53.36-8.28l4.45-3.72c-.27-.96-.61-1.9-1-2.83l-5.8.06c-.72-1.18-1.54-2.31-2.49-3.35-.98-1.07-2.03-1.99-3.14-2.8l.59-5.75c-.92-.49-1.8-.89-2.74-1.28l-4.08,4.18c-2.72-.73-5.54-.86-8.32-.41l-3.71-4.45c-.93.29-1.86.64-2.78,1.02l.03,5.82c-1.18.7-2.33,1.51-3.37,2.47-1.05.95-1.97,2.03-2.76,3.14ZM206.19,524.27c5.48-5.01,14-4.6,19,.86,5,5.46,4.63,13.95-.84,18.97-5.46,4.99-13.94,4.61-18.94-.86-5-5.46-4.67-13.98.79-18.98Z"/><path class="cls-2" d="M211.19,529.73c-2.47,2.26-2.65,6.1-.39,8.57,2.27,2.48,6.11,2.62,8.57.37,2.48-2.27,2.65-6.09.38-8.57-2.27-2.47-6.09-2.64-8.57-.37Z"/><path class="cls-2" d="M162.23,529.61c-1.47-1.6-3.04-2.94-4.23-3.84l2.03,8.91c.08.37.05.76-.07,1.11-.09.23-2.14,5.49-7.61,6.93-7.19,1.89-10.97-1.8-11.13-1.95-.24-.27-.43-.58-.52-.92l-2.59-10.92c-1.44,2.14-4.27,9.48-3.74,14.15.19,1.72,3.06,5.43,4.98,7.87,1.65,2.14,2.96,3.82,3.49,5.12,1.26,2.97,1.17,11.58,1.16,11.67l-1.25,42.49s.02,3.4,1.93,5.49c1.02,1.11,2.42,1.68,4.27,1.69,6.65.08,6.97-6.33,6.98-7.01l-.56-42.57c0-.7.06-6.87.4-9.13.58-3.83,3.49-7.14,6.07-10.05,1.5-1.71,2.92-3.33,3.45-4.58.91-2.16,1.18-6.25.78-7.98-.5-2.05-1.79-4.23-3.85-6.46ZM149.38,607.42c2.35.04,4.41,2.13,4.38,4.49-.02,2.43-2.03,4.4-4.47,4.39-1.23,0-2.41-.53-3.24-1.44-.76-.83-1.18-1.9-1.16-3.04.02-2.45,2.02-4.42,4.49-4.4Z"/><path class="cls-17" d="M72.42,429.06c1.05-15.79,14.16-28.28,30.22-28.28,3.03,0,5.95.46,8.71,1.28,6.79-10.28,18.43-17.06,31.67-17.06,9.05,0,17.36,3.18,23.88,8.47,8.39-7.48,19.41-12.07,31.54-12.07,23.59,0,43.11,17.24,46.77,39.8,1.77-.21,3.57-.36,5.4-.36,25.56,0,46.29,20.72,46.29,46.29s-20.72,46.28-46.29,46.28l-173.36-1.44c-22.98,0-41.6-18.62-41.6-41.6,0-21.34,16.08-38.9,36.78-41.3Z"/><path class="cls-3" d="M72.42,429.06c1.05-15.79,14.16-28.28,30.22-28.28,3.03,0,5.95.46,8.71,1.28,6.79-10.28,18.43-17.06,31.67-17.06,8.77,0,16.82,3,23.25,8v119.71l-89.02-.74c-22.98,0-41.6-18.62-41.6-41.6,0-21.34,16.08-38.9,36.78-41.3Z"/><path class="cls-5" d="M310.94,331.78c0,14.78-11.99,26.78-26.78,26.78s-26.78-11.99-26.78-26.78,11.99-26.78,26.78-26.78,26.78,11.99,26.78,26.78Z"/><path class="cls-12" d="M372.46,348.52c.69-3.77,1.1-7.62,1.31-11.53l-19.28-9.95c-.05-.72-.04-1.45-.11-2.16l17-13.9c-.89-3.67-2-7.25-3.33-10.72l-21.41-1.23c-.47-.88-.97-1.74-1.47-2.6l9.76-19.41c-2.23-2.86-4.58-5.63-7.14-8.19l-20,7.56c-.95-.74-1.92-1.48-2.91-2.18l1.02-21.5c-3.13-1.64-6.39-3.07-9.72-4.34l-15.11,14.96c-1.29-.32-2.58-.62-3.9-.88l-7.71-19.79c-1.77-.1-3.52-.26-5.31-.26s-3.54.16-5.31.26l-7.71,19.79c-1.32.25-2.6.55-3.89.88l-15.11-14.96c-3.33,1.27-6.59,2.7-9.72,4.34l1.02,21.5c-.99.7-1.96,1.43-2.91,2.18l-20-7.56c-2.56,2.56-4.9,5.33-7.14,8.19l9.76,19.41c-.5.86-1,1.71-1.47,2.6l-21.41,1.23c-1.33,3.48-2.44,7.05-3.33,10.72l17,13.9c-.07.71-.06,1.44-.11,2.16l-19.28,9.95c.21,3.91.62,7.76,1.31,11.53l21.51,5.88c.13.41.3.8.44,1.21l-13.76,17.16c1.8,3.57,3.79,7.02,6.05,10.29l22.33-3.42c.11.12.22.24.33.37l-5.68,21.61c3.14,2.59,6.51,4.88,9.99,7.03l18.97-12.18s.04.02.06.02l3.62,22.14c3.94,1.11,7.99,1.94,12.14,2.52l12.31-18.75,12.31,18.75c4.14-.58,8.19-1.4,12.14-2.52l3.62-22.14s.04-.02.06-.02l18.97,12.18c3.48-2.15,6.85-4.44,9.99-7.03l-5.68-21.61c.11-.13.22-.26.33-.37l22.33,3.42c2.25-3.27,4.24-6.72,6.05-10.29l-13.76-17.16c.14-.41.3-.8.44-1.21l21.51-5.88ZM284.16,381.12c-27.25,0-49.34-22.09-49.34-49.35s22.09-49.34,49.34-49.34,49.34,22.1,49.34,49.34-22.09,49.35-49.34,49.35Z"/><path class="cls-19" d="M284.16,392.07c33.3,0,60.29-26.99,60.29-60.29s-26.99-60.29-60.29-60.29-60.29,26.99-60.29,60.29,26.99,60.29,60.29,60.29ZM284.16,282.43c27.25,0,49.34,22.1,49.34,49.34s-22.09,49.35-49.34,49.35-49.34-22.09-49.34-49.35,22.09-49.34,49.34-49.34Z"/><path class="cls-3" d="M333.5,331.77c0,27.26-22.09,49.35-49.34,49.35v21.29l12.31,18.75c4.14-.58,8.19-1.4,12.14-2.52l3.62-22.14s.04-.02.06-.02l18.97,12.18c3.48-2.15,6.85-4.44,9.99-7.03l-5.68-21.61c.11-.13.22-.26.33-.37l22.33,3.42c2.25-3.27,4.24-6.72,6.05-10.29l-13.76-17.16c.14-.41.3-.8.44-1.21l21.51-5.88c.69-3.77,1.1-7.62,1.31-11.53l-19.28-9.95c-.05-.72-.04-1.45-.11-2.16l17-13.9c-.89-3.67-2-7.25-3.33-10.72l-21.41-1.23c-.47-.88-.97-1.74-1.47-2.6l9.76-19.41c-2.23-2.86-4.58-5.63-7.14-8.19l-20,7.56c-.95-.74-1.92-1.48-2.91-2.18l1.02-21.5c-3.13-1.64-6.39-3.07-9.72-4.34l-15.11,14.96c-1.29-.32-2.58-.62-3.9-.88l-7.71-19.79c-1.77-.1-3.52-.26-5.31-.26v40.02c27.25,0,49.34,22.1,49.34,49.34Z"/><path class="cls-19" d="M333.5,331.77c0,27.26-22.09,49.35-49.34,49.35v10.95c33.3,0,60.29-26.99,60.29-60.29s-26.99-60.29-60.29-60.29v10.94c27.25,0,49.34,22.1,49.34,49.34Z"/><polygon class="cls-5" points="214.74 486.68 168.22 437.46 121.68 486.68 151.75 486.68 151.75 513.14 179.6 513.14 179.6 486.68 214.74 486.68"/><path class="cls-11" d="M475.25,219.27c-.95-4.33-2.3-8.5-4.04-12.47l-19.52-3.75,2.46-19.65c-3.28-2.92-6.84-5.51-10.65-7.75l-17.95,8.42-9.6-17.41c-2.16-.21-4.34-.33-6.55-.33s-4.4.13-6.56.33l-9.6,17.41-17.94-8.42c-3.81,2.23-7.36,4.83-10.65,7.75l2.46,19.65-19.52,3.75c-1.74,3.97-3.1,8.14-4.04,12.47l13.58,14.49-13.58,14.5c.95,4.33,2.3,8.5,4.04,12.47l19.52,3.74-2.46,19.66c3.28,2.92,6.84,5.51,10.64,7.76l17.95-8.43,9.6,17.42c2.16.2,4.34.33,6.55.33s4.39-.13,6.54-.33l9.6-17.42,17.95,8.43c3.8-2.24,7.36-4.83,10.64-7.76l-2.46-19.66,19.52-3.74c1.74-3.97,3.09-8.14,4.04-12.47l-13.58-14.5,13.58-14.49ZM409.41,267.65c-18.71,0-33.88-15.17-33.88-33.87s15.17-33.88,33.88-33.88,33.87,15.17,33.87,33.88-15.17,33.87-33.87,33.87Z"/><path class="cls-11" d="M409.41,277.23c24,0,43.46-19.46,43.46-43.46s-19.46-43.46-43.46-43.46-43.46,19.45-43.46,43.46,19.46,43.46,43.46,43.46ZM409.41,199.89c18.71,0,33.87,15.17,33.87,33.88s-15.17,33.87-33.87,33.87-33.88-15.17-33.88-33.87,15.17-33.88,33.88-33.88Z"/><path class="cls-11" d="M471.21,206.8l-19.52-3.75,2.46-19.65c-3.28-2.92-6.84-5.51-10.65-7.75l-17.95,8.42-9.6-17.41c-1.89-.18-3.8-.26-5.73-.29v33.57c18.32.44,33.05,15.4,33.05,33.84s-14.73,33.39-33.05,33.83v33.56c1.92-.02,3.84-.1,5.72-.28l9.6-17.42,17.95,8.43c3.8-2.24,7.36-4.83,10.64-7.76l-2.46-19.66,19.52-3.74c1.74-3.97,3.09-8.14,4.04-12.47l-13.58-14.5,13.58-14.49c-.95-4.33-2.3-8.5-4.04-12.47Z"/><path class="cls-11" d="M410.24,190.36v9.58c18.32.44,33.05,15.4,33.05,33.84s-14.73,33.39-33.05,33.83v9.58c23.62-.44,42.63-19.69,42.63-43.42s-19.02-42.98-42.63-43.42Z"/><path class="cls-22" d="M637.09,583.92c0,7.86-6.36,14.21-14.25,14.21h-328.15c-7.87,0-14.24-6.35-14.24-14.21v-240.94c0-7.87,6.36-14.22,14.24-14.22h328.15c7.88,0,14.25,6.35,14.25,14.22v240.94Z"/><path class="cls-15" d="M622.84,328.76h-174.55v269.37h174.55c7.88,0,14.25-6.35,14.25-14.21v-240.94c0-7.87-6.36-14.22-14.25-14.22Z"/><rect class="cls-1" x="297.42" y="345.27" width="322.68" height="236.33"/><path class="cls-16" d="M261.89,612.59h393.92c2.6-4.64,5.06-9.42,7.33-14.24H254.55c2.26,4.82,4.72,9.6,7.35,14.24Z"/><path class="cls-13" d="M659.54,605.46h-210.14v7.12h206.33c1.31-2.36,2.57-4.74,3.82-7.12Z"/><path class="cls-18" d="M261.79,612.59h393.95c1.32-2.36,2.56-4.74,3.8-7.12h-401.54c1.22,2.39,2.47,4.76,3.79,7.12Z"/><rect class="cls-14" x="326.49" y="358.64" width="15.52" height="8.67"/><rect class="cls-9" x="326.49" y="529.21" width="30.15" height="8.67"/><rect class="cls-9" x="326.49" y="544.25" width="30.15" height="8.67"/><rect class="cls-14" x="326.49" y="558.62" width="18.05" height="8.67"/><rect class="cls-9" x="344.02" y="358.64" width="15.53" height="8.67"/><rect class="cls-9" x="365.05" y="358.64" width="37.49" height="8.67"/><rect class="cls-9" x="363.86" y="380.12" width="15.52" height="8.67"/><rect class="cls-9" x="381.39" y="380.12" width="15.52" height="8.67"/><rect class="cls-9" x="402.41" y="380.12" width="50.89" height="8.67"/><rect class="cls-9" x="401.65" y="395.35" width="15.53" height="8.67"/><rect class="cls-14" x="419.18" y="395.35" width="15.52" height="8.67"/><rect class="cls-14" x="362.67" y="515.91" width="9.03" height="8.67"/><rect class="cls-9" x="440.21" y="395.35" width="50.89" height="8.67"/><rect class="cls-9" x="494.81" y="395.35" width="41.54" height="8.67"/><rect class="cls-9" x="549.67" y="457.51" width="41.53" height="8.67"/><path class="cls-10" d="M595.45,393h91.46v-1.8c5.44,22.89,11.3,51.11,10.69,63.42-1.57,31.05-5.29,52.85-5.29,52.87v5.88c.02,6.3-4.97,11.43-11.1,11.43s-11.08-5.1-11.08-11.43v-2.25l-2.37.37v14.28c0,6.3-4.99,11.4-11.11,11.4s-11.1-5.09-11.1-11.4v-10.65l-2.78.46v21.32c0,6.3-4.97,11.4-11.09,11.4s-11.12-5.11-11.12-11.4v-17.68l-2.78.46v64.73c.02,6.29-4.95,11.4-11.09,11.37-6.13,0-11.1-5.06-11.1-11.37v-72.22s0-30.28-4.88-43.54c-2.16-5.79-6.35,12.06-7.11,15.46.55,4.32-.7,23.05-.7,23.05,1.11,11.43-7.66,13.94-12.28,14.19-6.6.42-9.11-2.57-8.56-9.33l1.07-14.99c.57-6.79-1.79-11.21-3.05-23.56-1.73-16.75,2.94-21.92,5.02-28.8,4.51-14.88,16.18-44.22,28.44-50.38.64-.33,1.25-.79,1.88-1.3Z"/><rect class="cls-21" x="590.23" y="382.84" width="98.69" height="16.97"/><rect class="cls-20" x="589.07" y="277.63" width="98.74" height="106.8"/><polygon class="cls-5" points="610.19 222.37 610.19 268.34 572.27 268.34 639.54 339.49 706.88 268.34 671.99 268.34 671.99 222.37 610.19 222.37"/><path class="cls-17" d="M770.54,106.23c-1.5-22.47-20.15-40.25-43.01-40.25-4.31,0-8.46.65-12.39,1.83-9.66-14.62-26.23-24.28-45.07-24.28-12.88,0-24.7,4.53-33.98,12.05-11.93-10.65-27.63-17.17-44.88-17.17-33.58,0-61.35,24.54-66.56,56.64-2.52-.31-5.08-.52-7.69-.52-36.38,0-65.87,29.49-65.87,65.87s29.49,65.87,65.87,65.87l246.71-2.05c32.7,0,59.21-26.51,59.21-59.21,0-30.37-22.88-55.37-52.34-58.78Z"/><path class="cls-3" d="M770.54,106.23c-1.5-22.47-20.15-40.25-43.01-40.25-4.31,0-8.46.65-12.39,1.83-9.66-14.62-26.23-24.28-45.07-24.28-12.48,0-23.94,4.28-33.08,11.38v170.37l126.69-1.06c32.7,0,59.21-26.51,59.21-59.21,0-30.37-22.88-55.37-52.34-58.78Z"/><path class="cls-4" d="M651.5,120.2c-2.96-.72-6.03-.83-9.03-.31-3,.52-5.86,1.64-8.4,3.31-.19.12-.35.29-.46.48-.12.19-.19.41-.22.63-.03.22,0,.45.07.66.07.21.19.41.34.57.33.36.77.6,1.25.67.48.07.98-.04,1.39-.3,2.09-1.37,4.44-2.3,6.91-2.72,2.47-.42,4.99-.34,7.42.26,4.27.73,8.07,3.12,10.59,6.65,2.52,3.52,3.54,7.9,2.85,12.17l-.16.71c-.19.85-.46,1.68-.79,2.48-.17.47-.16.99.02,1.46.19.47.54.85.99,1.07.2.12.43.19.67.22.24.03.47,0,.7-.07.23-.07.43-.19.61-.34.18-.16.32-.35.42-.56.53-1.24.92-2.54,1.16-3.87l.05-.23c.84-5.21-.41-10.54-3.48-14.84-3.07-4.29-7.71-7.2-12.91-8.1ZM669.49,198.68h-5.52s6.37-6.95,6.37-6.95c.7-.88,1.09-1.97,1.1-3.09.01-1.12-.36-2.22-1.04-3.11-.73-.92-1.67-1.65-2.73-2.15-1.06-.5-2.23-.74-3.4-.71-1.84-.18-3.68.36-5.12,1.51-1.45,1.15-2.38,2.83-2.62,4.66.13.57.45,1.08.9,1.44.46.37,1.02.56,1.61.56s1.15-.2,1.61-.56c.46-.36.77-.87.9-1.44.09-.65.42-1.24.94-1.65.52-.41,1.17-.59,1.82-.52.34,0,.68.07.99.22.31.15.57.37.78.64.21.28.34.61.36.96.02.35-.07.69-.24.99l-9.18,10.01c-.27.27-.43.63-.47,1.01-.04.38.05.76.26,1.08.25.35.59.64.98.83.39.19.82.28,1.25.27h10.46c.3.07.61.07.91,0s.58-.2.82-.4c.24-.19.43-.44.57-.71.13-.28.2-.58.2-.89s-.07-.61-.2-.89c-.13-.28-.33-.52-.57-.71-.24-.19-.52-.33-.82-.4-.3-.07-.61-.07-.91,0ZM618.18,188.41c-1.45.56-2.99.84-4.54.84-2.44.24-4.88-.48-6.8-2.01-1.92-1.53-3.16-3.75-3.47-6.18.31-2.43,1.55-4.65,3.47-6.18,1.92-1.53,4.36-2.25,6.8-2.01,1.53,0,3.06.28,4.49.82.58.24,1.23.28,1.84.12.61-.17,1.14-.53,1.52-1.04.14-.25.21-.52.23-.8.01-.28-.04-.56-.15-.82-.11-.26-.28-.49-.5-.67-.21-.18-.47-.31-.74-.38-2.14-.81-4.4-1.21-6.69-1.2-3.63-.36-7.26.72-10.12,2.99-2.85,2.27-4.71,5.57-5.17,9.19.46,3.62,2.32,6.92,5.17,9.2,2.85,2.28,6.48,3.35,10.12,2.99,2.31,0,4.61-.42,6.76-1.26.27-.07.53-.2.74-.39.21-.18.38-.41.49-.67.11-.26.16-.54.14-.82-.02-.28-.1-.55-.23-.8-.37-.51-.91-.88-1.52-1.05-.61-.17-1.26-.13-1.84.12ZM638.28,168.86c-3.63-.36-7.26.71-10.12,2.99-2.85,2.27-4.71,5.57-5.17,9.2.46,3.62,2.32,6.92,5.17,9.19s6.48,3.35,10.11,3c3.63.36,7.26-.72,10.12-2.99,2.85-2.28,4.71-5.57,5.17-9.2-.46-3.62-2.32-6.92-5.17-9.19-2.85-2.27-6.48-3.35-10.12-2.99ZM638.28,189.25c-2.45.25-4.89-.47-6.81-2.01-1.92-1.53-3.17-3.76-3.47-6.19.31-2.43,1.55-4.65,3.47-6.18,1.92-1.53,4.35-2.25,6.79-2.01,2.44-.24,4.88.48,6.8,2.01,1.92,1.53,3.16,3.75,3.47,6.18-.31,2.43-1.55,4.64-3.47,6.17-1.91,1.53-4.35,2.25-6.79,2.01v.02ZM614.13,163.39c.51-.03.99-.25,1.34-.62.35-.37.55-.86.55-1.38s-.2-1-.55-1.38c-.35-.37-.83-.59-1.34-.62h-14.76c-4.31,0-8.49-1.51-11.79-4.28-3.3-2.77-5.53-6.61-6.28-10.86-.75-4.25.02-8.62,2.18-12.35,2.16-3.73,5.56-6.59,9.61-8.06.48-.18.87-.54,1.09-1,.22-.46.26-.99.11-1.47-1-3.01-1.39-6.2-1.15-9.36.24-3.17,1.12-6.25,2.57-9.08,1.45-2.82,3.45-5.33,5.89-7.37,2.43-2.04,5.25-3.57,8.28-4.51,3.03-.94,6.22-1.26,9.38-.95,3.16.31,6.23,1.25,9.02,2.77,2.79,1.51,5.25,3.57,7.24,6.05,1.99,2.48,3.46,5.33,4.33,8.38.11.35.32.67.6.92.28.24.62.41.99.47.37.06.74.02,1.09-.12.34-.14.64-.38.85-.68,1.86-2.58,4.3-4.68,7.12-6.13,2.83-1.45,5.96-2.21,9.13-2.22h.13c2.68,0,5.33.54,7.79,1.59s4.68,2.61,6.51,4.55c1.88,1.94,3.34,4.25,4.3,6.77.96,2.53,1.4,5.22,1.28,7.92-.01.52.18,1.03.54,1.41.36.38.85.61,1.37.63.52.02,1.03-.15,1.42-.5.39-.35.63-.83.67-1.35.14-3.24-.39-6.48-1.53-9.51-1.15-3.04-2.9-5.81-5.16-8.14-2.21-2.33-4.86-4.19-7.81-5.46-2.95-1.27-6.12-1.93-9.33-1.93-3.23,0-6.44.63-9.42,1.89-2.98,1.25-5.68,3.09-7.94,5.41-2.63-5.79-7.17-10.51-12.86-13.37-5.69-2.86-12.18-3.68-18.4-2.33-6.22,1.35-11.79,4.78-15.79,9.74-4,4.95-6.17,11.13-6.17,17.49,0,2.17.26,4.34.76,6.46-4.62,2.13-8.38,5.78-10.65,10.34-2.27,4.56-2.91,9.76-1.81,14.73,1.09,4.97,3.85,9.42,7.82,12.61,3.97,3.19,8.91,4.93,14,4.92h14.76ZM688.77,123.79c-.41-.31-.93-.45-1.44-.38s-.98.32-1.31.72c-.33.4-.49.91-.44,1.42.04.51.28.99.66,1.34,2.92,2.4,5.03,5.64,6.04,9.28,1.01,3.64.87,7.5-.4,11.06-1.27,3.56-3.61,6.64-6.69,8.81-3.09,2.18-6.77,3.35-10.55,3.35h-52.31c-.51.03-.99.25-1.34.62-.35.37-.55.86-.55,1.38s.2,1,.55,1.38c.35.37.83.59,1.34.62h52.31c4.6,0,9.09-1.43,12.85-4.08,3.76-2.65,6.61-6.41,8.16-10.74,1.55-4.34,1.72-9.04.49-13.48-1.23-4.44-3.8-8.38-7.36-11.3Z"/><line class="cls-7" x1="122.51" y1="90.92" x2="122.51" y2="310.23"/><line class="cls-7" x1="88.81" y1="127.91" x2="374.29" y2="127.91"/><circle class="cls-6" cx="122.51" cy="321.96" r="10.33"/><circle class="cls-6" cx="383.79" cy="129.94" r="10.33"/><path class="cls-5" d="M430.95,449.54c-.55.56-.87,1.31-.86,2.1s.32,1.54.87,2.09c.56.55,1.31.87,2.1.86h2.96s.09,53.34.09,53.34c0,1.57.63,3.08,1.74,4.19,1.11,1.11,2.62,1.73,4.19,1.73l47.41-.08c1.57,0,3.08-.63,4.19-1.74,1.11-1.11,1.73-2.62,1.73-4.19l-.09-53.34h2.96c.79,0,1.54-.32,2.09-.88.55-.56.87-1.31.86-2.1s-.31-1.54-.87-2.09c-.56-.55-1.31-.87-2.1-.86l-14.82.02v-2.96c0-2.36-.95-4.62-2.62-6.28-1.67-1.66-3.93-2.6-6.29-2.59l-17.78.03c-2.36,0-4.62.94-6.28,2.61-1.66,1.67-2.6,3.93-2.59,6.29v2.96s-14.81.02-14.81.02c-.79,0-1.54.31-2.09.87ZM471.61,469.35c0-.79.31-1.54.86-2.1.55-.56,1.31-.87,2.09-.87s1.54.31,2.1.86c.56.55.87,1.31.87,2.09l.04,23.71c0,.79-.31,1.54-.86,2.1-.55.56-1.31.87-2.09.87s-1.54-.31-2.1-.86c-.56-.55-.87-1.31-.87-2.09l-.04-23.71ZM453.83,469.38c0-.79.31-1.54.86-2.1.55-.56,1.31-.87,2.09-.87s1.54.31,2.1.86c.56.55.87,1.31.87,2.09l.04,23.71c0,.79-.31,1.54-.86,2.1-.55.56-1.31.87-2.09.87s-1.54-.31-2.1-.86c-.56-.55-.87-1.31-.87-2.09l-.04-23.71ZM453.79,445.67c0-.79.31-1.54.86-2.1.55-.56,1.31-.87,2.09-.87l17.78-.03c.79,0,1.54.31,2.1.86.56.55.87,1.31.87,2.09v2.96s-23.7.04-23.7.04v-2.96Z"/><rect class="cls-8" x="373.77" y="537.88" width="192.02" height="22.18" rx="7" ry="7"/><rect class="cls-5" x="379.79" y="543.26" width="128.38" height="10.66" rx="4.33" ry="4.33"/></svg>